{
  "asset": {
    "version": "2.0",
    "generator": "THREE.GLTFExporter"
  },
  "scenes": [
    {
      "nodes": [
        0
      ]
    }
  ],
  "scene": 0,
  "nodes": [
    {
      "children": [
        4
      ],
      "matrix": [
        0.01,
        0,
        0,
        0,
        0,
        0.01,
        0,
        0,
        0,
        0,
        0.01,
        0,
        0,
        0,
        0,
        1
      ]
    },
    {
      "matrix": [
        3.2644623065547593,
        0,
        0,
        0,
        0,
        1,
        0,
        0,
        0,
        0,
        1,
        0,
        -22.698703645265425,
        72.527963843941,
        -19.61225398438418,
        1
      ],
      "name": "Helix",
      "mesh": 0
    },
    {
      "matrix": [
        0.9945203931694865,
        1.734723475976807e-18,
        -0.10454275474661116,
        0,
        -0.018392890396422376,
        0.9844015107755101,
        -0.1749724754518793,
        0,
        0.10291204571319766,
        0.1759365385100358,
        0.9790073775330967,
        0,
        81.41623523898645,
        253.105684114571,
        976.3631052077889,
        1
      ],
      "camera": 0
    },
    {
      "matrix": [
        1,
        0,
        0,
        0,
        0,
        1,
        0,
        0,
        0,
        0,
        1,
        0,
        0,
        1,
        0,
        1
      ],
      "name": "Default Ambient Light"
    },
    {
      "name": "Scene",
      "children": [
        1,
        2,
        3
      ]
    }
  ],
  "bufferViews": [
    {
      "buffer": 0,
      "byteOffset": 0,
      "byteLength": 4848,
      "target": 34962,
      "byteStride": 12
    },
    {
      "buffer": 0,
      "byteOffset": 4848,
      "byteLength": 4848,
      "target": 34962,
      "byteStride": 12
    },
    {
      "buffer": 0,
      "byteOffset": 9696,
      "byteLength": 3232,
      "target": 34962,
      "byteStride": 8
    },
    {
      "buffer": 0,
      "byteOffset": 12928,
      "byteLength": 3564,
      "target": 34963
    }
  ],
  "buffers": [
    {
      "byteLength": 16492,
      "uri": "data:application/octet-stream;base64,"
    }
  ],
  "accessors": [
    {
      "bufferView": 0,
      "componentType": 5126,
      "count": 404,
      "max": [
        20.01225471496582,
        92.07538604736328,
        20.01225471496582
      ],
      "min": [
        -20.01225471496582,
        -92.08212280273438,
        -20.01225471496582
      ],
      "type": "VEC3"
    },
    {
      "bufferView": 1,
      "componentType": 5126,
      "count": 404,
      "max": [
        1,
        0.9814988970756531,
        1
      ],
      "min": [
        -1,
        -0.9777337312698364,
        -1
      ],
      "type": "VEC3"
    },
    {
      "bufferView": 2,
      "componentType": 5126,
      "count": 404,
      "max": [
        1,
        1
      ],
      "min": [
        0,
        0
      ],
      "type": "VEC2"
    },
    {
      "bufferView": 3,
      "componentType": 5123,
      "count": 1782,
      "max": [
        402
      ],
      "min": [
        1
      ],
      "type": "SCALAR"
    }
  ],
  "meshes": [
    {
      "primitives": [
        {
          "mode": 4,
          "attributes": {
            "POSITION": 0,
            "NORMAL": 1,
            "TEXCOORD_0": 2
          },
          "extras": {
            "parameters": {
              "width": 77,
              "revolutions": 2.7,
              "segments": 33,
              "pathRadius": 17.7,
              "pathType": 0,
              "pathSegments": 3,
              "cornerRadius": 128,
              "cornerSegments": 4,
              "height": 184.9514657476676,
              "depth": 30.775492031231646,
              "radius": 15.387746015615823,
              "type": "HelixGeometry"
            },
            "type": "HelixGeometry"
          },
          "indices": 3
        }
      ]
    }
  ],
  "cameras": [
    {
      "type": "orthographic",
      "orthographic": {
        "xmag": 1.2716277892116967,
        "ymag": 0.9946840918138993,
        "zfar": 100000,
        "znear": 0
      }
    }
  ]
}